<?xml version="1.0" encoding="UTF-8"?><svg id="_レイヤー_1" xmlns="http://www.w3.org/2000/svg" xmlns:xlink="http://www.w3.org/1999/xlink" viewBox="0 0 645 629.5"><defs><style>.cls-1{fill:none;}.cls-2{clip-path:url(#clippath);}.cls-3,.cls-4{fill:#fff;}.cls-4{font-family:TimesNewRomanPS-BoldItalicMT, 'Times New Roman';font-size:875.3px;font-style:italic;font-weight:700;}</style><clipPath id="clippath"><path class="cls-1" d="m199-3v629.6h356.47V-3H199Zm75.13,365.95h-73.13l-.78-1.62,115.34-144.31.94-.2-42.36,146.13Z"/></clipPath></defs><polygon class="cls-3" points="360.41 360.95 203.08 360.95 488.06 4.39 394.06 262.65 551.39 262.65 266.41 619.22 360.41 360.95"/><path d="m485.03,9.77l-91.43,251.19-.98,2.68h156.68l-279.88,350.18,91.43-251.19.98-2.68h-156.68L485.03,9.77m6.05-10.77L201,361.95h157.98l-95.6,262.65,290.08-362.95h-157.98L491.08-1h0Z"/><text class="cls-4" transform="translate(31.8 604.6)"><tspan x="0" y="0">D</tspan></text><g class="cls-2"><polygon class="cls-3" points="360.41 360.95 203.08 360.95 488.06 4.39 394.06 262.65 551.39 262.65 266.41 619.22 360.41 360.95"/><path d="m485.03,9.77l-91.43,251.19-.98,2.68h156.68l-279.88,350.18,91.43-251.19.98-2.68h-156.68L485.03,9.77m6.05-10.77L201,361.95h157.98l-95.6,262.65,290.08-362.95h-157.98L491.08-1h0Z"/></g></svg>